<svg width="46" height="28" viewBox="0 0 46 28" fill="none" xmlns="http://www.w3.org/2000/svg">
<rect x="0.5" y="0.5" width="45" height="27" rx="7.5" fill="#F7F9FB"/>
<rect x="0.5" y="0.5" width="45" height="27" rx="7.5" stroke="#ECEEF0"/>
<path d="M13.6699 9.27806C14.0231 8.83629 14.2628 8.24311 14.1996 7.63696C13.6825 7.66267 13.0516 7.97807 12.6863 8.42019C12.3583 8.79879 12.068 9.4168 12.1437 9.99754C12.7241 10.0479 13.304 9.70744 13.6699 9.27806Z" fill="black"/>
<path d="M14.1929 10.111C13.35 10.0608 12.6334 10.5894 12.2309 10.5894C11.8281 10.5894 11.2118 10.1363 10.5451 10.1485C9.67737 10.1613 8.87224 10.6519 8.43191 11.4322C7.52624 12.9932 8.19291 15.3087 9.07363 16.58C9.50133 17.209 10.0168 17.9015 10.696 17.8766C11.3377 17.8515 11.5892 17.4611 12.3692 17.4611C13.1487 17.4611 13.3753 17.8766 14.0546 17.864C14.759 17.8514 15.1994 17.2348 15.6271 16.6052C16.1177 15.8882 16.3186 15.1959 16.3312 15.1579C16.3186 15.1453 14.9729 14.629 14.9604 13.081C14.9477 11.7848 16.0169 11.1683 16.0673 11.1301C15.4634 10.237 14.52 10.1363 14.1929 10.111Z" fill="black"/>
<path d="M21.5319 8.35669C23.3639 8.35669 24.6396 9.61949 24.6396 11.458C24.6396 13.3031 23.3377 14.5725 21.486 14.5725H19.4577V17.7981H17.9922V8.35669L21.5319 8.35669ZM19.4577 13.3424H21.1392C22.4151 13.3424 23.1413 12.6554 23.1413 11.4646C23.1413 10.2738 22.4151 9.59336 21.1458 9.59336H19.4577V13.3424Z" fill="black"/>
<path d="M25.0225 15.8419C25.0225 14.638 25.945 13.8987 27.5809 13.807L29.4651 13.6959V13.1659C29.4651 12.4004 28.9482 11.9424 28.0847 11.9424C27.2666 11.9424 26.7562 12.3349 26.6321 12.95H25.2973C25.3758 11.7068 26.4357 10.7908 28.1369 10.7908C29.8053 10.7908 30.8717 11.6741 30.8717 13.0546V17.7982H29.5173V16.6663H29.4848C29.0857 17.4319 28.2154 17.916 27.3126 17.916C25.9647 17.916 25.0225 17.0785 25.0225 15.8419ZM29.4651 15.2204V14.6773L27.7704 14.782C26.9264 14.8409 26.4488 15.2138 26.4488 15.8027C26.4488 16.4046 26.9461 16.7972 27.705 16.7972C28.693 16.7972 29.4651 16.1167 29.4651 15.2204Z" fill="black"/>
<path d="M32.151 20.3303V19.1853C32.2554 19.2114 32.4909 19.2114 32.6088 19.2114C33.2631 19.2114 33.6164 18.9367 33.8322 18.2301C33.8322 18.2169 33.9567 17.8113 33.9567 17.8047L31.4705 10.915H33.0013L34.7419 16.5158H34.7679L36.5085 10.915H38.0002L35.4221 18.158C34.8335 19.8265 34.153 20.363 32.7267 20.363C32.6088 20.363 32.2554 20.3499 32.151 20.3303Z" fill="black"/>
</svg>
