<svg width="41" height="28" viewBox="0 0 41 28" fill="none" xmlns="http://www.w3.org/2000/svg">
<rect x="0.875" y="0.375" width="39.5" height="27.25" rx="7.625" fill="white"/>
<rect x="0.875" y="0.375" width="39.5" height="27.25" rx="7.625" stroke="#F3F4F6" stroke-width="0.75"/>
<path fill-rule="evenodd" clip-rule="evenodd" d="M13.9326 17.5227H15.2336C15.1975 17.4648 15.1556 17.4082 15.1138 17.3516C15.0223 17.2281 14.9311 17.1048 14.902 16.9697C14.8446 16.6868 14.8268 16.3972 14.809 16.1074C14.8024 15.9999 14.7958 15.8924 14.7872 15.7851C14.7332 15.1033 14.68 14.4212 14.6267 13.739L14.6267 13.7381L14.6266 13.7375L14.6266 13.7369C14.5477 12.7257 14.4687 11.7144 14.3875 10.7038C14.362 10.405 14.226 10.2715 13.9241 10.2588C13.7626 10.2525 13.6005 10.2535 13.4382 10.2546C13.2758 10.2557 13.1132 10.2567 12.9505 10.2504C12.7613 10.244 12.6975 10.3224 12.6656 10.5004C12.6029 10.8394 12.5339 11.1774 12.4648 11.5154L12.4648 11.5154C12.3957 11.8534 12.3266 12.1913 12.2639 12.5304C12.2411 12.652 12.2143 12.7733 12.1875 12.8947C12.0841 13.3635 11.9804 13.8333 12.1087 14.323C12.1332 14.4162 12.1401 14.5138 12.1452 14.5864C12.1471 14.6145 12.1488 14.6389 12.1512 14.6578C12.1026 14.6924 12.0524 14.7208 12.0066 14.7467L12.0066 14.7467L12.0066 14.7467C11.9204 14.7956 11.8498 14.8356 11.8345 14.8909C11.7676 15.1481 11.7213 15.4109 11.6737 15.6802C11.6563 15.7793 11.6386 15.8792 11.6198 15.9801C11.717 15.9868 11.8026 15.9935 11.8881 16.0001L11.8882 16.0002L11.8882 16.0002C11.9652 16.0062 12.0422 16.0122 12.1278 16.0182C12.1278 16.1255 12.1275 16.231 12.1271 16.3352V16.3352V16.3352V16.3352V16.3352C12.1263 16.5913 12.1254 16.8398 12.13 17.0883C12.1363 17.4189 12.2299 17.5142 12.5679 17.5206C12.8927 17.5251 13.2176 17.5243 13.5425 17.5234C13.6725 17.5231 13.8026 17.5227 13.9326 17.5227ZM26.9554 15.781L26.9657 15.7364C26.9024 15.759 26.8401 15.7865 26.7787 15.8137C26.6505 15.8704 26.526 15.9256 26.4024 15.9313C25.873 15.9589 25.3437 15.9589 24.8165 15.9355C24.3808 15.9165 24.1788 15.6431 24.2745 15.2193C24.4828 14.2849 24.7039 13.3504 24.9356 12.4201C25.0504 11.9582 25.3246 11.7675 25.805 11.7611C26.1046 11.758 26.403 11.7584 26.7019 11.7588H26.7021H26.7022H26.7023H26.7025C26.8022 11.7589 26.9019 11.759 27.0018 11.759C27.2846 11.759 27.4844 11.6382 27.5609 11.3585C27.6349 11.0848 27.7025 10.8086 27.7746 10.5141L27.7747 10.5137L27.7753 10.5113L27.7754 10.511C27.7963 10.4258 27.8175 10.339 27.8394 10.2503H27.5035H24.4148C23.3668 10.2503 22.627 10.7483 22.2677 11.7294C22.1317 12.1002 22.0467 12.4901 21.9638 12.8778C21.9153 13.1013 21.8654 13.3246 21.8155 13.5479C21.6444 14.3139 21.4731 15.0807 21.3579 15.855C21.2134 16.8234 21.6534 17.3934 22.627 17.4591C23.4139 17.5133 24.2052 17.5097 24.9961 17.5062H24.9961H24.9962H24.9962H24.9963H24.9963C25.3185 17.5047 25.6406 17.5033 25.9623 17.5057C25.9834 17.5057 26.0045 17.5007 26.0256 17.4956C26.0406 17.492 26.0557 17.4884 26.0707 17.4866C26.43 17.4421 26.6277 17.2281 26.7042 16.8849C26.7859 16.5144 26.8715 16.144 26.9554 15.781ZM18.7369 17.5205C18.4568 17.5205 18.1815 17.5211 17.9096 17.5217H17.9096H17.9095H17.9095C17.2862 17.523 16.6808 17.5243 16.0755 17.5184C15.8119 17.5163 15.8268 17.3213 15.8693 17.137C15.9302 16.8762 15.9915 16.6154 16.0528 16.3545C16.1286 16.0323 16.2044 15.7098 16.2796 15.3867C16.3462 15.1 16.4122 14.8129 16.4782 14.5257L16.4782 14.5257L16.4782 14.5257L16.4783 14.5256L16.4783 14.5256L16.4783 14.5256L16.4783 14.5256C16.625 13.8873 16.7719 13.2486 16.9258 12.6129C16.9938 12.3311 16.9577 12.1023 16.6643 11.9073C16.7003 11.9033 16.7314 11.8992 16.7594 11.8956C16.8192 11.8878 16.8646 11.8819 16.9109 11.8819H18.9134C19.4214 11.8819 19.5065 11.9878 19.3938 12.4752C19.3832 12.5197 19.3726 12.5621 19.3577 12.6172C19.5575 12.6977 19.6978 12.6596 19.7977 12.4688C19.8059 12.453 19.8141 12.4369 19.8223 12.4207C19.878 12.3109 19.9365 12.1957 20.0273 12.1256C20.1867 12.0006 20.3695 11.8692 20.5609 11.8332C20.7461 11.7994 20.9395 11.8063 21.1494 11.8137C21.243 11.817 21.34 11.8204 21.4409 11.8204C21.406 11.9609 21.3741 12.0994 21.3425 12.236C21.2704 12.5487 21.2006 12.8514 21.1029 13.1448C21.0179 13.397 20.7479 13.4542 20.5013 13.4733C20.3668 13.4836 20.2314 13.4829 20.0958 13.4822C20.0086 13.4818 19.9212 13.4814 19.8338 13.4838C19.3938 13.4966 19.2174 13.6428 19.1196 14.0644L19.1193 14.0656L19.1191 14.0665L19.1189 14.0674C18.9151 14.9373 18.7112 15.8072 18.5052 16.675C18.4053 17.0925 18.4223 17.173 18.7369 17.5205ZM30.5159 11.878C30.1461 11.8789 29.7743 11.8798 29.3997 11.8798C29.374 11.9808 29.3483 12.0797 29.323 12.177L29.3228 12.1775L29.3228 12.1778C29.277 12.3539 29.2324 12.5252 29.1914 12.6957C29.1042 13.0474 29.185 13.164 29.5464 13.1724C29.8495 13.1801 30.1537 13.1789 30.4575 13.1776C30.5712 13.1771 30.6849 13.1767 30.7985 13.1767C31.3129 13.1767 31.4192 13.3144 31.315 13.8187C31.1047 14.8282 30.8979 15.8394 30.6915 16.8492L30.6914 16.8497L30.6348 17.1265C30.5816 17.3871 30.6858 17.5121 30.9855 17.5164C31.3682 17.5227 31.7509 17.5219 32.1336 17.5211C32.2611 17.5209 32.3886 17.5206 32.5161 17.5206H33.3302C33.0369 17.3426 33.0688 17.0947 33.1262 16.8425C33.1832 16.5992 33.241 16.3559 33.2988 16.1125L33.2992 16.1108C33.4331 15.5472 33.567 14.9833 33.6916 14.4184C33.7095 14.3374 33.7277 14.2563 33.7459 14.1753C33.849 13.7158 33.9522 13.2557 33.9956 12.791C34.0445 12.2549 33.681 11.8904 33.1347 11.8841C32.2663 11.8736 31.3968 11.8758 30.5159 11.878ZM10.759 10.2715H12.3044C12.145 11.0301 11.9898 11.7675 11.8346 12.5028C11.8254 12.5465 11.8154 12.5901 11.8054 12.6338L11.8054 12.6338C11.7784 12.7514 11.7514 12.8697 11.739 12.9902C11.6758 13.5662 11.3974 14.0546 11.1099 14.5591C11.078 14.6151 11.0459 14.6712 11.0141 14.7278C11.0651 14.7336 11.1111 14.7386 11.1584 14.7437L11.1585 14.7437L11.1585 14.7437C11.2137 14.7497 11.2707 14.7558 11.3393 14.7638C11.3202 14.8555 11.3016 14.9469 11.283 15.0381L11.283 15.0381C11.223 15.3326 11.1636 15.6243 11.0906 15.9123C11.08 15.9568 10.9333 15.997 10.8546 15.9886C10.6527 15.9674 10.5507 16.0585 10.4784 16.2322C10.43 16.348 10.3718 16.4601 10.3136 16.5721C10.2822 16.6324 10.2509 16.6927 10.2212 16.7535C10.0277 17.1434 10.0362 17.2112 10.3487 17.5185C10.1277 17.5185 9.90863 17.5193 9.69106 17.5201L9.69073 17.5201H9.69068C9.13003 17.5222 8.57921 17.5243 8.0295 17.5121C7.75103 17.5079 7.67875 17.3172 7.82117 17.0375C8.25483 16.192 8.69061 15.3486 9.12852 14.5053C9.41863 13.9439 9.70927 13.383 9.99991 12.8221L10.0001 12.8218L10.0002 12.8214C10.2909 12.2605 10.5815 11.6996 10.8716 11.1382C11.0927 10.7059 11.0842 10.6318 10.759 10.2715ZM30.8022 14.1525C30.8179 14.0828 30.8335 14.0132 30.8496 13.9438C30.659 13.9438 30.4706 13.9412 30.2838 13.9387C29.8581 13.9329 29.4409 13.9272 29.0257 13.9522C28.643 13.9734 28.3242 14.1938 28.1073 14.5138C27.6354 15.213 27.4632 15.9907 27.5483 16.8256C27.5865 17.19 27.8055 17.4337 28.169 17.4697C28.5708 17.5121 28.9832 17.5312 29.3849 17.4952C30.0269 17.4358 30.4138 16.9485 30.4032 16.2831C30.012 16.2111 29.944 16.1072 30.0269 15.7152L30.027 15.715C30.0503 15.5985 30.0737 15.4821 30.1034 15.3656C30.1715 15.0986 30.2714 14.857 30.5775 14.7723C30.62 14.7596 30.671 14.7066 30.6816 14.6621C30.7254 14.4936 30.7638 14.323 30.8022 14.1525Z" fill="#2755A5"/>
</svg>
