<svg
    xmlns="http://www.w3.org/2000/svg"
    width="29"
    height="26"
    viewBox="0 0 29 26">

    <g>
        <clip-path
            d="M0,0h29v26h-29z"/>
        <path
            d="M29,9.63H0V4.815C0,2.167 2.105,0 4.677,0H24.323C26.895,0 29,2.167 29,4.815V9.63Z"
            fill="#34A853"/>
        <path
            d="M29,13.722H0V8.907C0,6.259 2.105,4.093 4.677,4.093H24.323C26.895,4.093 29,6.259 29,8.907V13.722Z"
            fill="#FFBB00"/>
        <path
            d="M29,17.815H0V13C0,10.352 2.105,8.185 4.677,8.185H24.323C26.895,8.185 29,10.352 29,13V17.815Z"
            fill="#FE2C25"/>
        <path
            d="M0,10.785L18.406,15.311C20.581,15.841 22.896,15.359 24.673,13.963L29,10.593V21.185C29,23.833 26.895,26 24.323,26H4.677C2.105,26 0,23.833 0,21.185V10.785Z"
            fill="#4285F4"
            fill-rule="evenodd"/>
    </g>
</svg>