<svg width="41" height="28" viewBox="0 0 41 28" fill="none" xmlns="http://www.w3.org/2000/svg">
<rect x="0.625" y="0.375" width="39.5" height="27.25" rx="7.625" fill="white"/>
<rect x="0.625" y="0.375" width="39.5" height="27.25" rx="7.625" stroke="#F3F4F6" stroke-width="0.75"/>
<path fill-rule="evenodd" clip-rule="evenodd" d="M25.4235 21.5017C29.7925 21.5017 33.3343 18.0021 33.3343 13.6851C33.3343 9.36805 29.7925 5.86841 25.4235 5.86841C23.4654 5.86841 21.6735 6.57133 20.2921 7.73573C18.9107 6.57137 17.1188 5.86847 15.1608 5.86847C10.7918 5.86847 7.25 9.36811 7.25 13.6851C7.25 18.0022 10.7918 21.5018 15.1608 21.5018C17.1189 21.5018 18.9108 20.7989 20.2922 19.6345C21.6736 20.7988 23.4654 21.5017 25.4235 21.5017Z" fill="#ED0006"/>
<path fill-rule="evenodd" clip-rule="evenodd" d="M20.2921 19.6344C21.993 18.2007 23.0716 16.0674 23.0716 13.6851C23.0716 11.3028 21.993 9.16942 20.2921 7.7357C21.6735 6.57132 23.4654 5.86841 25.4234 5.86841C29.7925 5.86841 33.3342 9.36805 33.3342 13.6851C33.3342 18.0021 29.7925 21.5017 25.4234 21.5017C23.4654 21.5017 21.6735 20.7988 20.2921 19.6344Z" fill="#F9A000"/>
<path fill-rule="evenodd" clip-rule="evenodd" d="M20.2921 19.6343C21.9931 18.2006 23.0716 16.0672 23.0716 13.6849C23.0716 11.3027 21.9931 9.16932 20.2921 7.7356C18.5912 9.16932 17.5127 11.3027 17.5127 13.6849C17.5127 16.0672 18.5912 18.2006 20.2921 19.6343Z" fill="#FF5E00"/>
</svg>
