<svg width="41" height="28" viewBox="0 0 41 28" fill="none" xmlns="http://www.w3.org/2000/svg">
<rect x="0.375" y="0.375" width="39.5" height="27.25" rx="7.625" fill="white"/>
<rect x="0.375" y="0.375" width="39.5" height="27.25" rx="7.625" stroke="#F3F4F6" stroke-width="0.75"/>
<path fill-rule="evenodd" clip-rule="evenodd" d="M12.5419 18.5014H10.1389L8.33692 11.4246C8.25139 11.099 8.06979 10.8112 7.80266 10.6756C7.13599 10.3347 6.40138 10.0635 5.59998 9.92663V9.65417H9.47107C10.0053 9.65417 10.406 10.0635 10.4728 10.5388L11.4078 15.6436L13.8096 9.65417H16.1459L12.5419 18.5014ZM17.4816 18.5014H15.2121L17.0809 9.65417H19.3503L17.4816 18.5014ZM22.2865 12.1052C22.3533 11.6287 22.754 11.3562 23.2214 11.3562C23.9561 11.2878 24.7563 11.4246 25.4241 11.7643L25.8248 9.85947C25.157 9.58701 24.4224 9.4502 23.7557 9.4502C21.553 9.4502 19.9502 10.6757 19.9502 12.3765C19.9502 13.6704 21.0855 14.3497 21.8869 14.759C22.754 15.1671 23.0879 15.4396 23.0211 15.8477C23.0211 16.4598 22.3533 16.7323 21.6866 16.7323C20.8852 16.7323 20.0838 16.5282 19.3503 16.1874L18.9496 18.0934C19.751 18.4331 20.6181 18.5699 21.4195 18.5699C23.8893 18.6371 25.4241 17.4128 25.4241 15.5752C25.4241 13.2611 22.2865 13.1254 22.2865 12.1052ZM33.3667 18.5014L31.5647 9.65417H29.6291C29.2284 9.65417 28.8277 9.92663 28.6942 10.3347L25.3573 18.5014H27.6936L28.1599 17.2087H31.0304L31.2975 18.5014H33.3667ZM29.963 12.0367L30.6297 15.3711H28.7609L29.963 12.0367Z" fill="#172B85"/>
</svg>
